{"glyphs":{"0":{"ha":875,"x_min":0,"x_max":694,"o":"m 521 174 l 521 694 l 174 694 l 174 174 l 521 174 m 0 0 l 0 868 l 694 868 l 694 0 l 0 0 z "},"1":{"ha":528,"x_min":0,"x_max":347,"o":"m 174 0 l 174 694 l 0 694 l 0 868 l 347 868 l 347 0 l 174 0 z "},"2":{"ha":875,"x_min":0,"x_max":694,"o":"m 0 0 l 0 521 l 521 521 l 521 694 l 0 694 l 0 868 l 694 868 l 694 347 l 174 347 l 174 174 l 694 174 l 694 0 l 0 0 z "},"3":{"ha":875,"x_min":0,"x_max":694,"o":"m 0 0 l 0 174 l 521 174 l 521 347 l 0 347 l 0 521 l 521 521 l 521 694 l 0 694 l 0 868 l 694 868 l 694 0 l 0 0 z "},"4":{"ha":875,"x_min":0,"x_max":694,"o":"m 521 0 l 521 347 l 0 347 l 0 868 l 174 868 l 174 521 l 521 521 l 521 868 l 694 868 l 694 0 l 521 0 z "},"5":{"ha":875,"x_min":0,"x_max":694,"o":"m 0 0 l 0 174 l 521 174 l 521 347 l 0 347 l 0 868 l 694 868 l 694 694 l 174 694 l 174 521 l 694 521 l 694 0 l 0 0 z "},"6":{"ha":875,"x_min":0,"x_max":694,"o":"m 521 174 l 521 347 l 174 347 l 174 174 l 521 174 m 0 0 l 0 868 l 694 868 l 694 694 l 174 694 l 174 521 l 694 521 l 694 0 l 0 0 z "},"7":{"ha":875,"x_min":0,"x_max":694,"o":"m 521 0 l 521 694 l 0 694 l 0 868 l 694 868 l 694 0 l 521 0 z "},"8":{"ha":875,"x_min":0,"x_max":694,"o":"m 521 174 l 521 347 l 174 347 l 174 174 l 521 174 m 521 521 l 521 694 l 174 694 l 174 521 l 521 521 m 0 0 l 0 868 l 694 868 l 694 0 l 0 0 z "},"9":{"ha":875,"x_min":0,"x_max":694,"o":"m 521 521 l 521 694 l 174 694 l 174 521 l 521 521 m 0 0 l 0 174 l 521 174 l 521 347 l 0 347 l 0 868 l 694 868 l 694 0 l 0 0 z "}," ":{"ha":347,"x_min":0,"x_max":0,"o":""},"!":{"ha":354,"x_min":0,"x_max":174,"o":"m 0 0 l 0 174 l 174 174 l 174 0 l 0 0 m 0 347 l 0 868 l 174 868 l 174 347 l 0 347 z "},"\"":{"ha":701,"x_min":0,"x_max":521,"o":"m 0 521 l 0 868 l 174 868 l 174 521 l 0 521 m 347 521 l 347 868 l 521 868 l 521 521 l 347 521 z "},"#":{"ha":1048,"x_min":0,"x_max":868,"o":"m 521 347 l 521 521 l 347 521 l 347 347 l 521 347 m 174 0 l 174 174 l 0 174 l 0 347 l 174 347 l 174 521 l 0 521 l 0 694 l 174 694 l 174 868 l 347 868 l 347 694 l 521 694 l 521 868 l 694 868 l 694 694 l 868 694 l 868 521 l 694 521 l 694 347 l 868 347 l 868 174 l 694 174 l 694 0 l 521 0 l 521 174 l 347 174 l 347 0 l 174 0 z "},"$":{"ha":1048,"x_min":0,"x_max":868,"o":"m 694 174 l 694 347 l 521 347 l 521 174 l 694 174 m 347 521 l 347 694 l 174 694 l 174 521 l 347 521 m 0 0 l 0 174 l 347 174 l 347 347 l 0 347 l 0 868 l 868 868 l 868 694 l 521 694 l 521 521 l 868 521 l 868 0 l 0 0 z "},"%":{"ha":701,"x_min":0,"x_max":521,"o":"m 347 0 l 347 174 l 521 174 l 521 0 l 347 0 m 0 694 l 0 868 l 174 868 l 174 694 l 0 694 m 0 0 l 0 521 l 347 521 l 347 868 l 521 868 l 521 347 l 174 347 l 174 0 l 0 0 z "},"&":{"ha":1048,"x_min":0,"x_max":868,"o":"m 521 174 l 521 347 l 174 347 l 174 174 l 521 174 m 521 521 l 521 694 l 347 694 l 347 521 l 521 521 m 0 0 l 0 521 l 174 521 l 174 868 l 694 868 l 694 521 l 693 521 l 608 434 l 694 347 l 694 174 l 868 174 l 868 0 l 0 0 z "},"'":{"ha":354,"x_min":0,"x_max":174,"o":"m 0 521 l 0 868 l 174 868 l 174 521 l 0 521 z "},"(":{"ha":528,"x_min":0,"x_max":347,"o":"m 0 0 l 0 868 l 347 868 l 347 694 l 174 694 l 174 174 l 347 174 l 347 0 l 0 0 z "},")":{"ha":528,"x_min":0,"x_max":347,"o":"m 0 0 l 0 174 l 174 174 l 174 694 l 0 694 l 0 868 l 347 868 l 347 0 l 0 0 z "},"*":{"ha":701,"x_min":0,"x_max":521,"o":"m 174 347 l 174 521 l 0 521 l 0 694 l 174 694 l 174 868 l 347 868 l 347 694 l 521 694 l 521 521 l 347 521 l 347 347 l 174 347 z "},"+":{"ha":1048,"x_min":0,"x_max":868,"o":"m 347 0 l 347 347 l 0 347 l 0 521 l 347 521 l 347 868 l 521 868 l 521 521 l 868 521 l 868 347 l 521 347 l 521 0 l 347 0 z "},",":{"ha":354,"x_min":0,"x_max":174,"o":"m 0 -174 l 0 174 l 174 174 l 174 -174 l 0 -174 z "},"-":{"ha":875,"x_min":0,"x_max":694,"o":"m 0 347 l 0 521 l 694 521 l 694 347 l 0 347 z "},".":{"ha":354,"x_min":0,"x_max":174,"o":"m 0 0 l 0 174 l 174 174 l 174 0 l 0 0 z "},"/":{"ha":528,"x_min":0,"x_max":347,"o":"m 0 0 l 0 521 l 174 521 l 174 868 l 347 868 l 347 347 l 174 347 l 174 0 l 0 0 z "},":":{"ha":354,"x_min":0,"x_max":174,"o":"m 0 0 l 0 174 l 174 174 l 174 0 l 0 0 m 0 694 l 0 868 l 174 868 l 174 694 l 0 694 z "},";":{"ha":354,"x_min":0,"x_max":174,"o":"m 0 -174 l 0 174 l 174 174 l 174 -174 l 0 -174 m 0 694 l 0 868 l 174 868 l 174 694 l 0 694 z "},"<":{"ha":701,"x_min":0,"x_max":521,"o":"m 0 174 l 0 694 l 521 694 l 521 521 l 174 521 l 174 347 l 521 347 l 521 174 l 0 174 z "},"=":{"ha":875,"x_min":0,"x_max":694,"o":"m 0 174 l 0 347 l 694 347 l 694 174 l 0 174 m 0 521 l 0 694 l 694 694 l 694 521 l 0 521 z "},">":{"ha":701,"x_min":0,"x_max":521,"o":"m 0 174 l 0 347 l 347 347 l 347 521 l 0 521 l 0 694 l 521 694 l 521 174 l 0 174 z "},"?":{"ha":875,"x_min":0,"x_max":694,"o":"m 174 0 l 174 174 l 347 174 l 347 0 l 174 0 m 174 347 l 174 521 l 521 521 l 521 694 l 0 694 l 0 868 l 694 868 l 694 347 l 174 347 z "},"@":{"ha":1048,"x_min":0,"x_max":868,"o":"m 0 0 l 0 868 l 868 868 l 868 0 l 347 0 l 347 521 l 521 521 l 521 174 l 694 174 l 694 694 l 174 694 l 174 0 l 0 0 z "},"A":{"ha":875,"x_min":0,"x_max":694,"o":"m 521 521 l 521 694 l 174 694 l 174 521 l 521 521 m 0 0 l 0 868 l 694 868 l 694 0 l 521 0 l 521 347 l 174 347 l 174 0 l 0 0 z "},"B":{"ha":875,"x_min":0,"x_max":694,"o":"m 521 174 l 521 347 l 174 347 l 174 174 l 521 174 m 521 521 l 521 694 l 174 694 l 174 521 l 521 521 m 0 0 l 0 868 l 694 868 l 694 521 l 693 521 l 608 434 l 694 347 l 694 0 l 0 0 z "},"C":{"ha":875,"x_min":0,"x_max":694,"o":"m 0 0 l 0 868 l 694 868 l 694 694 l 174 694 l 174 174 l 694 174 l 694 0 l 0 0 z "},"D":{"ha":875,"x_min":0,"x_max":694,"o":"m 521 174 l 521 694 l 174 694 l 174 174 l 521 174 m 0 0 l 0 868 l 521 868 l 694 694 l 694 174 l 521 0 l 0 0 z "},"E":{"ha":875,"x_min":0,"x_max":694,"o":"m 0 0 l 0 868 l 694 868 l 694 694 l 174 694 l 174 521 l 694 521 l 694 347 l 174 347 l 174 174 l 694 174 l 694 0 l 0 0 z "},"F":{"ha":875,"x_min":0,"x_max":694,"o":"m 0 0 l 0 868 l 694 868 l 694 694 l 174 694 l 174 521 l 694 521 l 694 347 l 174 347 l 174 0 l 0 0 z "},"G":{"ha":875,"x_min":0,"x_max":694,"o":"m 0 0 l 0 868 l 694 868 l 694 694 l 174 694 l 174 174 l 521 174 l 521 347 l 347 347 l 347 521 l 694 521 l 694 0 l 0 0 z "},"H":{"ha":875,"x_min":0,"x_max":694,"o":"m 0 0 l 0 868 l 174 868 l 174 521 l 521 521 l 521 868 l 694 868 l 694 0 l 521 0 l 521 347 l 174 347 l 174 0 l 0 0 z "},"I":{"ha":354,"x_min":0,"x_max":174,"o":"m 0 0 l 0 868 l 174 868 l 174 0 l 0 0 z "},"J":{"ha":701,"x_min":0,"x_max":521,"o":"m 0 0 l 0 174 l 347 174 l 347 868 l 521 868 l 521 0 l 0 0 z "},"K":{"ha":875,"x_min":0,"x_max":694,"o":"m 0 0 l 0 868 l 174 868 l 174 521 l 521 521 l 521 868 l 694 868 l 694 521 l 693 521 l 608 434 l 694 347 l 694 0 l 521 0 l 521 347 l 174 347 l 174 0 l 0 0 z "},"L":{"ha":875,"x_min":0,"x_max":694,"o":"m 0 0 l 0 868 l 174 868 l 174 174 l 694 174 l 694 0 l 0 0 z "},"M":{"ha":1048,"x_min":0,"x_max":868,"o":"m 0 0 l 0 868 l 868 868 l 868 0 l 694 0 l 694 694 l 521 694 l 521 0 l 347 0 l 347 694 l 174 694 l 174 0 l 0 0 z "},"N":{"ha":875,"x_min":0,"x_max":694,"o":"m 0 0 l 0 868 l 694 868 l 694 0 l 521 0 l 521 694 l 174 694 l 174 0 l 0 0 z "},"O":{"ha":875,"x_min":0,"x_max":694,"o":"m 521 174 l 521 694 l 174 694 l 174 174 l 521 174 m 0 0 l 0 868 l 694 868 l 694 0 l 0 0 z "},"P":{"ha":875,"x_min":0,"x_max":694,"o":"m 521 521 l 521 694 l 174 694 l 174 521 l 521 521 m 0 0 l 0 868 l 694 868 l 694 347 l 174 347 l 174 0 l 0 0 z "},"Q":{"ha":875,"x_min":0,"x_max":694,"o":"m 347 174 l 347 347 l 521 347 l 521 694 l 174 694 l 174 174 l 347 174 m 0 0 l 0 868 l 694 868 l 694 174 l 521 174 l 521 0 l 0 0 z "},"R":{"ha":875,"x_min":0,"x_max":694,"o":"m 521 521 l 521 694 l 174 694 l 174 521 l 521 521 m 0 0 l 0 868 l 694 868 l 694 521 l 693 521 l 608 434 l 694 347 l 694 0 l 521 0 l 521 347 l 174 347 l 174 0 l 0 0 z "},"S":{"ha":875,"x_min":0,"x_max":694,"o":"m 0 0 l 0 174 l 521 174 l 521 347 l 0 347 l 0 868 l 694 868 l 694 694 l 174 694 l 174 521 l 694 521 l 694 0 l 0 0 z "},"T":{"ha":875,"x_min":0,"x_max":694,"o":"m 260 0 l 260 694 l 0 694 l 0 868 l 694 868 l 694 694 l 434 694 l 434 0 l 260 0 z "},"U":{"ha":875,"x_min":0,"x_max":694,"o":"m 0 0 l 0 868 l 174 868 l 174 174 l 521 174 l 521 868 l 694 868 l 694 0 l 0 0 z "},"V":{"ha":875,"x_min":0,"x_max":694,"o":"m 174 0 l 0 174 l 0 868 l 174 868 l 174 174 l 521 174 l 521 868 l 694 868 l 694 174 l 521 0 l 174 0 z "},"W":{"ha":1048,"x_min":0,"x_max":868,"o":"m 0 0 l 0 868 l 174 868 l 174 174 l 347 174 l 347 868 l 521 868 l 521 174 l 694 174 l 694 868 l 868 868 l 868 0 l 0 0 z "},"X":{"ha":875,"x_min":0,"x_max":694,"o":"m 0 0 l 0 347 l 0 347 l 87 434 l 0 521 l 0 868 l 174 868 l 174 521 l 521 521 l 521 868 l 694 868 l 694 521 l 693 521 l 608 434 l 694 347 l 694 0 l 521 0 l 521 347 l 174 347 l 174 0 l 0 0 z "},"Y":{"ha":875,"x_min":0,"x_max":694,"o":"m 260 0 l 260 347 l 0 347 l 0 868 l 174 868 l 174 521 l 521 521 l 521 868 l 694 868 l 694 347 l 434 347 l 434 0 l 260 0 z "},"Z":{"ha":875,"x_min":0,"x_max":694,"o":"m 0 0 l 0 521 l 521 521 l 521 694 l 0 694 l 0 868 l 694 868 l 694 347 l 174 347 l 174 174 l 694 174 l 694 0 l 0 0 z "},"[":{"ha":528,"x_min":0,"x_max":347,"o":"m 0 0 l 0 868 l 347 868 l 347 694 l 174 694 l 174 174 l 347 174 l 347 0 l 0 0 z "},"\\":{"ha":528,"x_min":0,"x_max":347,"o":"m 174 0 l 174 347 l 0 347 l 0 868 l 174 868 l 174 521 l 347 521 l 347 0 l 174 0 z "},"]":{"ha":528,"x_min":0,"x_max":347,"o":"m 0 0 l 0 174 l 174 174 l 174 694 l 0 694 l 0 868 l 347 868 l 347 0 l 0 0 z "},"^":{"ha":701,"x_min":0,"x_max":521,"o":"m 0 521 l 0 868 l 521 868 l 521 521 l 347 521 l 347 694 l 174 694 l 174 521 l 0 521 z "},"_":{"ha":1048,"x_min":0,"x_max":868,"o":"m 0 0 l 0 174 l 868 174 l 868 0 l 0 0 z "},"`":{"ha":354,"x_min":0,"x_max":174,"o":"m 0 521 l 0 868 l 174 868 l 174 521 l 0 521 z "},"a":{"ha":875,"x_min":0,"x_max":694,"o":"m 521 521 l 521 694 l 174 694 l 174 521 l 521 521 m 0 0 l 0 868 l 694 868 l 694 0 l 521 0 l 521 347 l 174 347 l 174 0 l 0 0 z "},"b":{"ha":875,"x_min":0,"x_max":694,"o":"m 521 174 l 521 347 l 174 347 l 174 174 l 521 174 m 521 521 l 521 694 l 174 694 l 174 521 l 521 521 m 0 0 l 0 868 l 694 868 l 694 521 l 693 521 l 608 434 l 694 347 l 694 0 l 0 0 z "},"c":{"ha":875,"x_min":0,"x_max":694,"o":"m 0 0 l 0 868 l 694 868 l 694 694 l 174 694 l 174 174 l 694 174 l 694 0 l 0 0 z "},"d":{"ha":875,"x_min":0,"x_max":694,"o":"m 521 174 l 521 694 l 174 694 l 174 174 l 521 174 m 0 0 l 0 868 l 521 868 l 694 694 l 694 174 l 521 0 l 0 0 z "},"e":{"ha":875,"x_min":0,"x_max":694,"o":"m 0 0 l 0 868 l 694 868 l 694 694 l 174 694 l 174 521 l 694 521 l 694 347 l 174 347 l 174 174 l 694 174 l 694 0 l 0 0 z "},"f":{"ha":875,"x_min":0,"x_max":694,"o":"m 0 0 l 0 868 l 694 868 l 694 694 l 174 694 l 174 521 l 694 521 l 694 347 l 174 347 l 174 0 l 0 0 z "},"g":{"ha":875,"x_min":0,"x_max":694,"o":"m 0 0 l 0 868 l 694 868 l 694 694 l 174 694 l 174 174 l 521 174 l 521 347 l 347 347 l 347 521 l 694 521 l 694 0 l 0 0 z "},"h":{"ha":875,"x_min":0,"x_max":694,"o":"m 0 0 l 0 868 l 174 868 l 174 521 l 521 521 l 521 868 l 694 868 l 694 0 l 521 0 l 521 347 l 174 347 l 174 0 l 0 0 z "},"i":{"ha":354,"x_min":0,"x_max":174,"o":"m 0 0 l 0 868 l 174 868 l 174 0 l 0 0 z "},"j":{"ha":701,"x_min":0,"x_max":521,"o":"m 0 0 l 0 174 l 347 174 l 347 868 l 521 868 l 521 0 l 0 0 z "},"k":{"ha":875,"x_min":0,"x_max":694,"o":"m 0 0 l 0 868 l 174 868 l 174 521 l 521 521 l 521 868 l 694 868 l 694 521 l 693 521 l 608 434 l 694 347 l 694 0 l 521 0 l 521 347 l 174 347 l 174 0 l 0 0 z "},"l":{"ha":875,"x_min":0,"x_max":694,"o":"m 0 0 l 0 868 l 174 868 l 174 174 l 694 174 l 694 0 l 0 0 z "},"m":{"ha":1048,"x_min":0,"x_max":868,"o":"m 0 0 l 0 868 l 868 868 l 868 0 l 694 0 l 694 694 l 521 694 l 521 0 l 347 0 l 347 694 l 174 694 l 174 0 l 0 0 z "},"n":{"ha":875,"x_min":0,"x_max":694,"o":"m 0 0 l 0 868 l 694 868 l 694 0 l 521 0 l 521 694 l 174 694 l 174 0 l 0 0 z "},"o":{"ha":875,"x_min":0,"x_max":694,"o":"m 521 174 l 521 694 l 174 694 l 174 174 l 521 174 m 0 0 l 0 868 l 694 868 l 694 0 l 0 0 z "},"p":{"ha":875,"x_min":0,"x_max":694,"o":"m 521 521 l 521 694 l 174 694 l 174 521 l 521 521 m 0 0 l 0 868 l 694 868 l 694 347 l 174 347 l 174 0 l 0 0 z "},"q":{"ha":875,"x_min":0,"x_max":694,"o":"m 347 174 l 347 347 l 521 347 l 521 694 l 174 694 l 174 174 l 347 174 m 0 0 l 0 868 l 694 868 l 694 174 l 521 174 l 521 0 l 0 0 z "},"r":{"ha":875,"x_min":0,"x_max":694,"o":"m 521 521 l 521 694 l 174 694 l 174 521 l 521 521 m 0 0 l 0 868 l 694 868 l 694 521 l 693 521 l 608 434 l 694 347 l 694 0 l 521 0 l 521 347 l 174 347 l 174 0 l 0 0 z "},"s":{"ha":875,"x_min":0,"x_max":694,"o":"m 0 0 l 0 174 l 521 174 l 521 347 l 0 347 l 0 868 l 694 868 l 694 694 l 174 694 l 174 521 l 694 521 l 694 0 l 0 0 z "},"t":{"ha":875,"x_min":0,"x_max":694,"o":"m 260 0 l 260 694 l 0 694 l 0 868 l 694 868 l 694 694 l 434 694 l 434 0 l 260 0 z "},"u":{"ha":875,"x_min":0,"x_max":694,"o":"m 0 0 l 0 868 l 174 868 l 174 174 l 521 174 l 521 868 l 694 868 l 694 0 l 0 0 z "},"v":{"ha":875,"x_min":0,"x_max":694,"o":"m 174 0 l 0 174 l 0 868 l 174 868 l 174 174 l 521 174 l 521 868 l 694 868 l 694 174 l 521 0 l 174 0 z "},"w":{"ha":1048,"x_min":0,"x_max":868,"o":"m 0 0 l 0 868 l 174 868 l 174 174 l 347 174 l 347 868 l 521 868 l 521 174 l 694 174 l 694 868 l 868 868 l 868 0 l 0 0 z "},"x":{"ha":875,"x_min":0,"x_max":694,"o":"m 0 0 l 0 347 l 0 347 l 87 434 l 0 521 l 0 868 l 174 868 l 174 521 l 521 521 l 521 868 l 694 868 l 694 521 l 693 521 l 608 434 l 694 347 l 694 0 l 521 0 l 521 347 l 174 347 l 174 0 l 0 0 z "},"y":{"ha":875,"x_min":0,"x_max":694,"o":"m 260 0 l 260 347 l 0 347 l 0 868 l 174 868 l 174 521 l 521 521 l 521 868 l 694 868 l 694 347 l 434 347 l 434 0 l 260 0 z "},"z":{"ha":875,"x_min":0,"x_max":694,"o":"m 0 0 l 0 521 l 521 521 l 521 694 l 0 694 l 0 868 l 694 868 l 694 347 l 174 347 l 174 174 l 694 174 l 694 0 l 0 0 z "},"{":{"ha":701,"x_min":0,"x_max":521,"o":"m 174 0 l 174 347 l 0 347 l 0 521 l 174 521 l 174 868 l 521 868 l 521 694 l 347 694 l 347 174 l 521 174 l 521 0 l 174 0 z "},"|":{"ha":354,"x_min":0,"x_max":174,"o":"m 0 0 l 0 868 l 174 868 l 174 0 l 0 0 z "},"}":{"ha":701,"x_min":0,"x_max":521,"o":"m 0 0 l 0 174 l 174 174 l 174 694 l 0 694 l 0 868 l 347 868 l 347 521 l 521 521 l 521 347 l 347 347 l 347 0 l 0 0 z "},"~":{"ha":1048,"x_min":0,"x_max":868,"o":"m 0 347 l 0 694 l 521 694 l 521 521 l 694 521 l 694 694 l 868 694 l 868 347 l 347 347 l 347 521 l 174 521 l 174 347 l 0 347 z "},"¡":{"ha":354,"x_min":0,"x_max":174,"o":"m 0 0 l 0 521 l 174 521 l 174 0 l 0 0 m 0 694 l 0 868 l 174 868 l 174 694 l 0 694 z "},"¢":{"ha":701,"x_min":0,"x_max":521,"o":"m 174 0 l 174 174 l 0 174 l 0 694 l 174 694 l 174 868 l 347 868 l 347 694 l 521 694 l 521 521 l 174 521 l 174 347 l 521 347 l 521 174 l 347 174 l 347 0 l 174 0 z "},"£":{"ha":875,"x_min":-174,"x_max":694,"o":"m 0 0 l 0 347 l -174 347 l -174 521 l 0 521 l 0 868 l 521 868 l 521 694 l 174 694 l 174 521 l 347 521 l 347 347 l 174 347 l 174 174 l 694 174 l 694 0 l 0 0 z "},"¤":{"ha":1048,"x_min":0,"x_max":868,"o":"m 0 0 l 0 174 l 174 174 l 174 0 l 0 0 m 694 0 l 694 174 l 868 174 l 868 0 l 694 0 m 521 347 l 521 521 l 347 521 l 347 347 l 521 347 m 174 174 l 174 694 l 694 694 l 694 174 l 174 174 m 0 694 l 0 868 l 174 868 l 174 694 l 0 694 m 694 694 l 694 868 l 868 868 l 868 694 l 694 694 z "},"¥":{"ha":875,"x_min":0,"x_max":694,"o":"m 260 0 l 260 87 l 87 87 l 87 260 l 260 260 l 260 347 l 0 347 l 0 868 l 174 868 l 174 521 l 521 521 l 521 868 l 694 868 l 694 347 l 434 347 l 434 260 l 608 260 l 608 87 l 434 87 l 434 0 l 260 0 z "},"¦":{"ha":354,"x_min":0,"x_max":174,"o":"m 0 0 l 0 347 l 174 347 l 174 0 l 0 0 m 0 521 l 0 868 l 174 868 l 174 521 l 0 521 z "},"§":{"ha":875,"x_min":0,"x_max":694,"o":"m 0 0 l 0 174 l 521 174 l 521 347 l 347 347 l 347 521 l 694 521 l 694 0 l 0 0 m 0 347 l 0 868 l 694 868 l 694 694 l 174 694 l 174 347 l 0 347 z "},"¨":{"ha":875,"x_min":0,"x_max":694,"o":"m 0 694 l 0 868 l 174 868 l 174 694 l 0 694 m 521 694 l 521 868 l 694 868 l 694 694 l 521 694 z "},"©":{"ha":1048,"x_min":0,"x_max":868,"o":"m 347 347 l 347 521 l 521 521 l 521 347 l 347 347 m 694 174 l 694 694 l 174 694 l 174 174 l 694 174 m 0 0 l 0 868 l 868 868 l 868 0 l 0 0 z "},"ª":{"ha":701,"x_min":0,"x_max":521,"o":"m 347 521 l 347 694 l 174 694 l 174 521 l 347 521 m 0 347 l 0 868 l 521 868 l 521 347 l 0 347 z "},"«":{"ha":1048,"x_min":0,"x_max":868,"o":"m 0 174 l 0 694 l 347 694 l 347 521 l 174 521 l 174 347 l 347 347 l 347 174 l 0 174 m 521 174 l 521 694 l 868 694 l 868 521 l 694 521 l 694 347 l 868 347 l 868 174 l 521 174 z "},"¬":{"ha":875,"x_min":0,"x_max":694,"o":"m 521 174 l 521 347 l 0 347 l 0 521 l 694 521 l 694 174 l 521 174 z "},"®":{"ha":1048,"x_min":0,"x_max":868,"o":"m 347 347 l 347 521 l 521 521 l 521 347 l 347 347 m 694 174 l 694 694 l 174 694 l 174 174 l 694 174 m 0 0 l 0 868 l 868 868 l 868 0 l 0 0 z "},"¯":{"ha":875,"x_min":0,"x_max":694,"o":"m 0 694 l 0 868 l 694 868 l 694 694 l 0 694 z "},"°":{"ha":701,"x_min":0,"x_max":521,"o":"m 347 521 l 347 694 l 174 694 l 174 521 l 347 521 m 0 347 l 0 868 l 521 868 l 521 347 l 0 347 z "},"±":{"ha":701,"x_min":0,"x_max":521,"o":"m 0 0 l 0 174 l 521 174 l 521 0 l 0 0 m 174 347 l 174 521 l 0 521 l 0 694 l 174 694 l 174 868 l 347 868 l 347 694 l 521 694 l 521 521 l 347 521 l 347 347 l 174 347 z "},"²":{"ha":528,"x_min":0,"x_max":347,"o":"m 0 347 l 0 868 l 347 868 l 347 347 l 0 347 z "},"³":{"ha":528,"x_min":0,"x_max":347,"o":"m 0 347 l 0 868 l 347 868 l 347 347 l 0 347 z "},"´":{"ha":528,"x_min":0,"x_max":347,"o":"m 0 694 l 0 868 l 347 868 l 347 694 l 0 694 z "},"µ":{"ha":875,"x_min":0,"x_max":694,"o":"m 0 0 l 0 868 l 174 868 l 174 521 l 521 521 l 521 868 l 694 868 l 694 347 l 174 347 l 174 0 l 0 0 z "},"¶":{"ha":875,"x_min":0,"x_max":694,"o":"m 174 0 l 174 347 l 0 347 l 0 868 l 694 868 l 694 0 l 521 0 l 521 694 l 347 694 l 347 0 l 174 0 z "},"·":{"ha":354,"x_min":0,"x_max":174,"o":"m 0 347 l 0 521 l 174 521 l 174 347 l 0 347 z "},"¸":{"ha":528,"x_min":0,"x_max":347,"o":"m 174 -347 l 174 -174 l 0 -174 l 0 174 l 174 174 l 174 0 l 347 0 l 347 -347 l 174 -347 z "},"¹":{"ha":354,"x_min":0,"x_max":174,"o":"m 0 521 l 0 868 l 174 868 l 174 521 l 0 521 z "},"º":{"ha":354,"x_min":0,"x_max":174,"o":"m 0 694 l 0 868 l 174 868 l 174 694 l 0 694 z "},"»":{"ha":1048,"x_min":0,"x_max":868,"o":"m 0 174 l 0 347 l 174 347 l 174 521 l 0 521 l 0 694 l 347 694 l 347 174 l 0 174 m 521 174 l 521 347 l 694 347 l 694 521 l 521 521 l 521 694 l 868 694 l 868 174 l 521 174 z "},"¼":{"ha":875,"x_min":0,"x_max":694,"o":"m 0 0 l 0 174 l 694 174 l 694 0 l 0 0 m 0 347 l 0 521 l 694 521 l 694 347 l 0 347 m 0 694 l 0 868 l 174 868 l 174 694 l 0 694 z "},"½":{"ha":875,"x_min":0,"x_max":694,"o":"m 347 0 l 347 174 l 694 174 l 694 0 l 347 0 m 0 347 l 0 521 l 694 521 l 694 347 l 0 347 m 0 694 l 0 868 l 174 868 l 174 694 l 0 694 z "},"¾":{"ha":875,"x_min":0,"x_max":694,"o":"m 0 0 l 0 174 l 694 174 l 694 0 l 0 0 m 0 347 l 0 521 l 694 521 l 694 347 l 0 347 m 0 694 l 0 868 l 521 868 l 521 694 l 0 694 z "},"¿":{"ha":875,"x_min":0,"x_max":694,"o":"m 0 0 l 0 521 l 347 521 l 347 347 l 174 347 l 174 174 l 521 174 l 521 347 l 694 347 l 694 0 l 0 0 m 174 694 l 174 868 l 347 868 l 347 694 l 174 694 z "},"À":{"ha":875,"x_min":0,"x_max":694,"o":"m 521 521 l 521 694 l 174 694 l 174 521 l 521 521 m 0 0 l 0 868 l 694 868 l 694 0 l 521 0 l 521 347 l 174 347 l 174 0 l 0 0 m 0 1042 l 0 1215 l 347 1215 l 347 1042 l 0 1042 z "},"Á":{"ha":875,"x_min":0,"x_max":694,"o":"m 521 521 l 521 694 l 174 694 l 174 521 l 521 521 m 0 0 l 0 868 l 694 868 l 694 0 l 521 0 l 521 347 l 174 347 l 174 0 l 0 0 m 347 1042 l 347 1215 l 694 1215 l 694 1042 l 347 1042 z "},"Â":{"ha":875,"x_min":0,"x_max":694,"o":"m 521 521 l 521 694 l 174 694 l 174 521 l 521 521 m 0 0 l 0 868 l 694 868 l 694 0 l 521 0 l 521 347 l 174 347 l 174 0 l 0 0 m 0 1042 l 0 1215 l 694 1215 l 694 1042 l 0 1042 z "},"Ã":{"ha":875,"x_min":0,"x_max":694,"o":"m 521 521 l 521 694 l 174 694 l 174 521 l 521 521 m 0 0 l 0 868 l 694 868 l 694 0 l 521 0 l 521 347 l 174 347 l 174 0 l 0 0 m 0 1042 l 0 1215 l 694 1215 l 694 1042 l 0 1042 z "},"Ä":{"ha":875,"x_min":0,"x_max":694,"o":"m 521 521 l 521 694 l 174 694 l 174 521 l 521 521 m 0 0 l 0 868 l 694 868 l 694 0 l 521 0 l 521 347 l 174 347 l 174 0 l 0 0 m 0 1042 l 0 1215 l 174 1215 l 174 1042 l 0 1042 m 521 1042 l 521 1215 l 694 1215 l 694 1042 l 521 1042 z "},"Å":{"ha":875,"x_min":0,"x_max":694,"o":"m 521 521 l 521 694 l 174 694 l 174 521 l 521 521 m 0 0 l 0 868 l 694 868 l 694 0 l 521 0 l 521 347 l 174 347 l 174 0 l 0 0 m 174 1042 l 174 1215 l 347 1215 l 347 1042 l 174 1042 z "},"Æ":{"ha":1048,"x_min":0,"x_max":868,"o":"m 347 521 l 347 694 l 174 694 l 174 521 l 347 521 m 0 0 l 0 868 l 868 868 l 868 694 l 521 694 l 521 521 l 868 521 l 868 347 l 521 347 l 521 174 l 868 174 l 868 0 l 347 0 l 347 347 l 174 347 l 174 0 l 0 0 z "},"Ç":{"ha":875,"x_min":0,"x_max":694,"o":"m 174 -174 l 174 0 l 0 0 l 0 868 l 694 868 l 694 694 l 174 694 l 174 174 l 694 174 l 694 0 l 347 0 l 347 -174 l 174 -174 z "},"È":{"ha":875,"x_min":0,"x_max":694,"o":"m 0 0 l 0 868 l 694 868 l 694 694 l 174 694 l 174 521 l 694 521 l 694 347 l 174 347 l 174 174 l 694 174 l 694 0 l 0 0 m 0 1042 l 0 1215 l 347 1215 l 347 1042 l 0 1042 z "},"É":{"ha":875,"x_min":0,"x_max":694,"o":"m 0 0 l 0 868 l 694 868 l 694 694 l 174 694 l 174 521 l 694 521 l 694 347 l 174 347 l 174 174 l 694 174 l 694 0 l 0 0 m 347 1042 l 347 1215 l 694 1215 l 694 1042 l 347 1042 z "},"Ê":{"ha":875,"x_min":0,"x_max":694,"o":"m 0 0 l 0 868 l 694 868 l 694 694 l 174 694 l 174 521 l 694 521 l 694 347 l 174 347 l 174 174 l 694 174 l 694 0 l 0 0 m 0 1042 l 0 1215 l 694 1215 l 694 1042 l 0 1042 z "},"Ë":{"ha":875,"x_min":0,"x_max":694,"o":"m 0 0 l 0 868 l 694 868 l 694 694 l 174 694 l 174 521 l 694 521 l 694 347 l 174 347 l 174 174 l 694 174 l 694 0 l 0 0 m 0 1042 l 0 1215 l 174 1215 l 174 1042 l 0 1042 m 521 1042 l 521 1215 l 694 1215 l 694 1042 l 521 1042 z "},"Ì":{"ha":528,"x_min":0,"x_max":347,"o":"m 0 0 l 0 868 l 174 868 l 174 0 l 0 0 m 0 1042 l 0 1215 l 347 1215 l 347 1042 l 0 1042 z "},"Í":{"ha":528,"x_min":0,"x_max":347,"o":"m 0 0 l 0 868 l 174 868 l 174 0 l 0 0 m 0 1042 l 0 1215 l 347 1215 l 347 1042 l 0 1042 z "},"Î":{"ha":354,"x_min":0,"x_max":174,"o":"m 0 0 l 0 868 l 174 868 l 174 0 l 0 0 m 0 1042 l 0 1215 l 174 1215 l 174 1042 l 0 1042 z "},"Ï":{"ha":528,"x_min":-174,"x_max":347,"o":"m 0 0 l 0 868 l 174 868 l 174 0 l 0 0 m -174 1042 l -174 1215 l 0 1215 l 0 1042 l -174 1042 m 174 1042 l 174 1215 l 347 1215 l 347 1042 l 174 1042 z "},"Ð":{"ha":875,"x_min":-174,"x_max":694,"o":"m 521 174 l 521 694 l 174 694 l 174 521 l 347 521 l 347 347 l 174 347 l 174 174 l 521 174 m 0 0 l 0 347 l -174 347 l -174 521 l 0 521 l 0 868 l 521 868 l 694 694 l 694 174 l 521 0 l 0 0 z "},"Ñ":{"ha":875,"x_min":0,"x_max":694,"o":"m 0 0 l 0 868 l 694 868 l 694 0 l 521 0 l 521 694 l 174 694 l 174 0 l 0 0 m 0 1042 l 0 1215 l 694 1215 l 694 1042 l 0 1042 z "},"Ò":{"ha":875,"x_min":0,"x_max":694,"o":"m 521 174 l 521 694 l 174 694 l 174 174 l 521 174 m 0 0 l 0 868 l 694 868 l 694 0 l 0 0 m 0 1042 l 0 1215 l 347 1215 l 347 1042 l 0 1042 z "},"Ó":{"ha":875,"x_min":0,"x_max":694,"o":"m 521 174 l 521 694 l 174 694 l 174 174 l 521 174 m 0 0 l 0 868 l 694 868 l 694 0 l 0 0 m 347 1042 l 347 1215 l 694 1215 l 694 1042 l 347 1042 z "},"Ô":{"ha":875,"x_min":0,"x_max":694,"o":"m 521 174 l 521 694 l 174 694 l 174 174 l 521 174 m 0 0 l 0 868 l 694 868 l 694 0 l 0 0 m 0 1042 l 0 1215 l 694 1215 l 694 1042 l 0 1042 z "},"Õ":{"ha":875,"x_min":0,"x_max":694,"o":"m 521 174 l 521 694 l 174 694 l 174 174 l 521 174 m 0 0 l 0 868 l 694 868 l 694 0 l 0 0 m 0 1042 l 0 1215 l 694 1215 l 694 1042 l 0 1042 z "},"Ö":{"ha":875,"x_min":0,"x_max":694,"o":"m 521 174 l 521 694 l 174 694 l 174 174 l 521 174 m 0 0 l 0 868 l 694 868 l 694 0 l 0 0 m 0 1042 l 0 1215 l 174 1215 l 174 1042 l 0 1042 m 521 1042 l 521 1215 l 694 1215 l 694 1042 l 521 1042 z "},"×":{"ha":701,"x_min":0,"x_max":521,"o":"m 0 174 l 0 347 l 0 347 l 87 434 l 0 521 l 0 694 l 174 694 l 174 521 l 347 521 l 347 694 l 521 694 l 521 521 l 519 521 l 434 434 l 521 347 l 521 174 l 347 174 l 347 347 l 174 347 l 174 174 l 0 174 z "},"Ø":{"ha":875,"x_min":0,"x_max":694,"o":"m 521 174 l 521 521 l 347 521 l 347 694 l 174 694 l 174 347 l 347 347 l 347 174 l 521 174 m 0 0 l 0 868 l 694 868 l 694 0 l 0 0 z "},"Ù":{"ha":875,"x_min":0,"x_max":694,"o":"m 0 0 l 0 868 l 174 868 l 174 174 l 521 174 l 521 868 l 694 868 l 694 0 l 0 0 m 0 1042 l 0 1215 l 347 1215 l 347 1042 l 0 1042 z "},"Ú":{"ha":875,"x_min":0,"x_max":694,"o":"m 0 0 l 0 868 l 174 868 l 174 174 l 521 174 l 521 868 l 694 868 l 694 0 l 0 0 m 347 1042 l 347 1215 l 694 1215 l 694 1042 l 347 1042 z "},"Û":{"ha":875,"x_min":0,"x_max":694,"o":"m 0 0 l 0 868 l 174 868 l 174 174 l 521 174 l 521 868 l 694 868 l 694 0 l 0 0 m 0 1042 l 0 1215 l 694 1215 l 694 1042 l 0 1042 z "},"Ü":{"ha":875,"x_min":0,"x_max":694,"o":"m 0 0 l 0 868 l 174 868 l 174 174 l 521 174 l 521 868 l 694 868 l 694 0 l 0 0 m 0 1042 l 0 1215 l 174 1215 l 174 1042 l 0 1042 m 521 1042 l 521 1215 l 694 1215 l 694 1042 l 521 1042 z "},"Ý":{"ha":701,"x_min":0,"x_max":521,"o":"m 174 0 l 174 347 l 0 347 l 0 868 l 174 868 l 174 521 l 347 521 l 347 868 l 174 868 l 174 1042 l 521 1042 l 521 347 l 347 347 l 347 0 l 174 0 z "},"Þ":{"ha":701,"x_min":0,"x_max":521,"o":"m 347 347 l 347 521 l 174 521 l 174 347 l 347 347 m 0 0 l 0 868 l 174 868 l 174 694 l 521 694 l 521 174 l 174 174 l 174 0 l 0 0 z "},"ß":{"ha":875,"x_min":0,"x_max":694,"o":"m 347 521 l 347 694 l 174 694 l 174 521 l 347 521 m 0 0 l 0 868 l 521 868 l 521 521 l 694 521 l 694 0 l 347 0 l 347 174 l 521 174 l 521 347 l 174 347 l 174 0 l 0 0 z "},"à":{"ha":875,"x_min":0,"x_max":694,"o":"m 521 521 l 521 694 l 174 694 l 174 521 l 521 521 m 0 0 l 0 868 l 694 868 l 694 0 l 521 0 l 521 347 l 174 347 l 174 0 l 0 0 m 0 1042 l 0 1215 l 347 1215 l 347 1042 l 0 1042 z "},"á":{"ha":875,"x_min":0,"x_max":694,"o":"m 521 521 l 521 694 l 174 694 l 174 521 l 521 521 m 0 0 l 0 868 l 694 868 l 694 0 l 521 0 l 521 347 l 174 347 l 174 0 l 0 0 m 347 1042 l 347 1215 l 694 1215 l 694 1042 l 347 1042 z "},"â":{"ha":875,"x_min":0,"x_max":694,"o":"m 521 521 l 521 694 l 174 694 l 174 521 l 521 521 m 0 0 l 0 868 l 694 868 l 694 0 l 521 0 l 521 347 l 174 347 l 174 0 l 0 0 m 0 1042 l 0 1215 l 694 1215 l 694 1042 l 0 1042 z "},"ã":{"ha":875,"x_min":0,"x_max":694,"o":"m 521 521 l 521 694 l 174 694 l 174 521 l 521 521 m 0 0 l 0 868 l 694 868 l 694 0 l 521 0 l 521 347 l 174 347 l 174 0 l 0 0 m 0 1042 l 0 1215 l 694 1215 l 694 1042 l 0 1042 z "},"ä":{"ha":875,"x_min":0,"x_max":694,"o":"m 521 521 l 521 694 l 174 694 l 174 521 l 521 521 m 0 0 l 0 868 l 694 868 l 694 0 l 521 0 l 521 347 l 174 347 l 174 0 l 0 0 m 0 1042 l 0 1215 l 174 1215 l 174 1042 l 0 1042 m 521 1042 l 521 1215 l 694 1215 l 694 1042 l 521 1042 z "},"å":{"ha":875,"x_min":0,"x_max":694,"o":"m 521 521 l 521 694 l 174 694 l 174 521 l 521 521 m 0 0 l 0 868 l 694 868 l 694 0 l 521 0 l 521 347 l 174 347 l 174 0 l 0 0 m 174 1042 l 174 1215 l 347 1215 l 347 1042 l 174 1042 z "},"æ":{"ha":1048,"x_min":0,"x_max":868,"o":"m 347 521 l 347 694 l 174 694 l 174 521 l 347 521 m 0 0 l 0 868 l 868 868 l 868 694 l 521 694 l 521 521 l 868 521 l 868 347 l 521 347 l 521 174 l 868 174 l 868 0 l 347 0 l 347 347 l 174 347 l 174 0 l 0 0 z "},"ç":{"ha":875,"x_min":0,"x_max":694,"o":"m 174 -174 l 174 0 l 0 0 l 0 868 l 694 868 l 694 694 l 174 694 l 174 174 l 694 174 l 694 0 l 347 0 l 347 -174 l 174 -174 z "},"è":{"ha":875,"x_min":0,"x_max":694,"o":"m 0 0 l 0 868 l 694 868 l 694 694 l 174 694 l 174 521 l 694 521 l 694 347 l 174 347 l 174 174 l 694 174 l 694 0 l 0 0 m 0 1042 l 0 1215 l 347 1215 l 347 1042 l 0 1042 z "},"é":{"ha":875,"x_min":0,"x_max":694,"o":"m 0 0 l 0 868 l 694 868 l 694 694 l 174 694 l 174 521 l 694 521 l 694 347 l 174 347 l 174 174 l 694 174 l 694 0 l 0 0 m 347 1042 l 347 1215 l 694 1215 l 694 1042 l 347 1042 z "},"ê":{"ha":875,"x_min":0,"x_max":694,"o":"m 0 0 l 0 868 l 694 868 l 694 694 l 174 694 l 174 521 l 694 521 l 694 347 l 174 347 l 174 174 l 694 174 l 694 0 l 0 0 m 0 1042 l 0 1215 l 694 1215 l 694 1042 l 0 1042 z "},"ë":{"ha":875,"x_min":0,"x_max":694,"o":"m 0 0 l 0 868 l 694 868 l 694 694 l 174 694 l 174 521 l 694 521 l 694 347 l 174 347 l 174 174 l 694 174 l 694 0 l 0 0 m 0 1042 l 0 1215 l 174 1215 l 174 1042 l 0 1042 m 521 1042 l 521 1215 l 694 1215 l 694 1042 l 521 1042 z "},"ì":{"ha":528,"x_min":0,"x_max":347,"o":"m 0 0 l 0 868 l 174 868 l 174 0 l 0 0 m 0 1042 l 0 1215 l 347 1215 l 347 1042 l 0 1042 z "},"í":{"ha":528,"x_min":0,"x_max":347,"o":"m 0 0 l 0 868 l 174 868 l 174 0 l 0 0 m 0 1042 l 0 1215 l 347 1215 l 347 1042 l 0 1042 z "},"î":{"ha":354,"x_min":0,"x_max":174,"o":"m 0 0 l 0 868 l 174 868 l 174 0 l 0 0 m 0 1042 l 0 1215 l 174 1215 l 174 1042 l 0 1042 z "},"ï":{"ha":528,"x_min":-174,"x_max":347,"o":"m 0 0 l 0 868 l 174 868 l 174 0 l 0 0 m -174 1042 l -174 1215 l 0 1215 l 0 1042 l -174 1042 m 174 1042 l 174 1215 l 347 1215 l 347 1042 l 174 1042 z "},"ð":{"ha":1048,"x_min":0,"x_max":868,"o":"m 694 174 l 694 347 l 174 347 l 174 174 l 694 174 m 694 521 l 694 694 l 521 694 l 521 521 l 694 521 m 0 0 l 0 521 l 347 521 l 347 694 l 174 694 l 174 868 l 347 868 l 347 1042 l 521 1042 l 521 868 l 868 868 l 868 0 l 0 0 z "},"ñ":{"ha":875,"x_min":0,"x_max":694,"o":"m 0 0 l 0 868 l 694 868 l 694 0 l 521 0 l 521 694 l 174 694 l 174 0 l 0 0 m 0 1042 l 0 1215 l 694 1215 l 694 1042 l 0 1042 z "},"ò":{"ha":875,"x_min":0,"x_max":694,"o":"m 521 174 l 521 694 l 174 694 l 174 174 l 521 174 m 0 0 l 0 868 l 694 868 l 694 0 l 0 0 m 0 1042 l 0 1215 l 347 1215 l 347 1042 l 0 1042 z "},"ó":{"ha":875,"x_min":0,"x_max":694,"o":"m 521 174 l 521 694 l 174 694 l 174 174 l 521 174 m 0 0 l 0 868 l 694 868 l 694 0 l 0 0 m 347 1042 l 347 1215 l 694 1215 l 694 1042 l 347 1042 z "},"ô":{"ha":875,"x_min":0,"x_max":694,"o":"m 521 174 l 521 694 l 174 694 l 174 174 l 521 174 m 0 0 l 0 868 l 694 868 l 694 0 l 0 0 m 0 1042 l 0 1215 l 694 1215 l 694 1042 l 0 1042 z "},"õ":{"ha":875,"x_min":0,"x_max":694,"o":"m 521 174 l 521 694 l 174 694 l 174 174 l 521 174 m 0 0 l 0 868 l 694 868 l 694 0 l 0 0 m 0 1042 l 0 1215 l 694 1215 l 694 1042 l 0 1042 z "},"ö":{"ha":875,"x_min":0,"x_max":694,"o":"m 521 174 l 521 694 l 174 694 l 174 174 l 521 174 m 0 0 l 0 868 l 694 868 l 694 0 l 0 0 m 0 1042 l 0 1215 l 174 1215 l 174 1042 l 0 1042 m 521 1042 l 521 1215 l 694 1215 l 694 1042 l 521 1042 z "},"÷":{"ha":1048,"x_min":0,"x_max":868,"o":"m 347 0 l 347 174 l 521 174 l 521 0 l 347 0 m 0 347 l 0 521 l 868 521 l 868 347 l 0 347 m 347 694 l 347 868 l 521 868 l 521 694 l 347 694 z "},"ø":{"ha":875,"x_min":0,"x_max":694,"o":"m 521 174 l 521 521 l 347 521 l 347 694 l 174 694 l 174 347 l 347 347 l 347 174 l 521 174 m 0 0 l 0 868 l 694 868 l 694 0 l 0 0 z "},"ù":{"ha":875,"x_min":0,"x_max":694,"o":"m 0 0 l 0 868 l 174 868 l 174 174 l 521 174 l 521 868 l 694 868 l 694 0 l 0 0 m 0 1042 l 0 1215 l 347 1215 l 347 1042 l 0 1042 z "},"ú":{"ha":875,"x_min":0,"x_max":694,"o":"m 0 0 l 0 868 l 174 868 l 174 174 l 521 174 l 521 868 l 694 868 l 694 0 l 0 0 m 347 1042 l 347 1215 l 694 1215 l 694 1042 l 347 1042 z "},"û":{"ha":875,"x_min":0,"x_max":694,"o":"m 0 0 l 0 868 l 174 868 l 174 174 l 521 174 l 521 868 l 694 868 l 694 0 l 0 0 m 0 1042 l 0 1215 l 694 1215 l 694 1042 l 0 1042 z "},"ü":{"ha":875,"x_min":0,"x_max":694,"o":"m 0 0 l 0 868 l 174 868 l 174 174 l 521 174 l 521 868 l 694 868 l 694 0 l 0 0 m 0 1042 l 0 1215 l 174 1215 l 174 1042 l 0 1042 m 521 1042 l 521 1215 l 694 1215 l 694 1042 l 521 1042 z "},"ý":{"ha":701,"x_min":0,"x_max":521,"o":"m 174 0 l 174 347 l 0 347 l 0 868 l 174 868 l 174 521 l 347 521 l 347 868 l 174 868 l 174 1042 l 521 1042 l 521 347 l 347 347 l 347 0 l 174 0 z "},"þ":{"ha":701,"x_min":0,"x_max":521,"o":"m 347 347 l 347 521 l 174 521 l 174 347 l 347 347 m 0 0 l 0 868 l 174 868 l 174 694 l 521 694 l 521 174 l 174 174 l 174 0 l 0 0 z "},"ÿ":{"ha":701,"x_min":0,"x_max":521,"o":"m 174 0 l 174 347 l 0 347 l 0 868 l 174 868 l 174 521 l 347 521 l 347 868 l 521 868 l 521 347 l 347 347 l 347 0 l 174 0 z "},"Ů":{"ha":1048,"x_min":0,"x_max":868,"o":"m 174 0 q 50 50 100 0 q 0 174 0 102 l 0 868 l 174 868 l 174 174 l 694 174 l 694 868 l 868 868 l 868 0 l 174 0 z "},"ů":{"ha":1048,"x_min":0,"x_max":868,"o":"m 174 0 q 50 50 100 0 q 0 174 0 102 l 0 868 l 174 868 l 174 174 l 694 174 l 694 868 l 868 868 l 868 0 l 174 0 z "},"Ÿ":{"ha":701,"x_min":0,"x_max":521,"o":"m 174 0 l 174 347 l 0 347 l 0 694 l 174 694 l 174 521 l 347 521 l 347 694 l 521 694 l 521 347 l 347 347 l 347 0 l 174 0 m 0 868 l 0 1042 l 174 1042 l 174 868 l 0 868 m 347 868 l 347 1042 l 521 1042 l 521 868 l 347 868 z "},"ẞ":{"ha":875,"x_min":0,"x_max":694,"o":"m 347 521 l 347 694 l 174 694 l 174 521 l 347 521 m 0 0 l 0 868 l 521 868 l 521 521 l 694 521 l 694 0 l 347 0 l 347 174 l 521 174 l 521 347 l 174 347 l 174 0 l 0 0 z "},"—":{"ha":1048,"x_min":0,"x_max":868,"o":"m 0 347 l 0 521 l 868 521 l 868 347 l 0 347 z "},"‘":{"ha":354,"x_min":0,"x_max":174,"o":"m 0 521 l 0 868 l 174 868 l 174 521 l 0 521 z "},"’":{"ha":354,"x_min":0,"x_max":174,"o":"m 0 521 l 0 868 l 174 868 l 174 521 l 0 521 z "},"‚":{"ha":354,"x_min":0,"x_max":174,"o":"m 0 -174 l 0 174 l 174 174 l 174 -174 l 0 -174 z "},"‛":{"ha":354,"x_min":0,"x_max":174,"o":"m 0 521 l 0 868 l 174 868 l 174 521 l 0 521 z "},"“":{"ha":701,"x_min":0,"x_max":521,"o":"m 0 521 l 0 868 l 174 868 l 174 521 l 0 521 m 347 521 l 347 868 l 521 868 l 521 521 l 347 521 z "},"”":{"ha":701,"x_min":0,"x_max":521,"o":"m 0 521 l 0 868 l 174 868 l 174 521 l 0 521 m 347 521 l 347 868 l 521 868 l 521 521 l 347 521 z "},"„":{"ha":701,"x_min":0,"x_max":521,"o":"m 0 -174 l 0 174 l 174 174 l 174 -174 l 0 -174 m 347 -174 l 347 174 l 521 174 l 521 -174 l 347 -174 z "},"†":{"ha":701,"x_min":0,"x_max":521,"o":"m 174 0 l 174 521 l 0 521 l 0 694 l 174 694 l 174 1042 l 347 1042 l 347 694 l 521 694 l 521 521 l 347 521 l 347 0 l 174 0 z "},"•":{"ha":354,"x_min":0,"x_max":174,"o":"m 0 347 l 0 521 l 174 521 l 174 347 l 0 347 z "},"…":{"ha":1048,"x_min":0,"x_max":868,"o":"m 0 0 l 0 174 l 174 174 l 174 0 l 0 0 m 347 0 l 347 174 l 521 174 l 521 0 l 347 0 m 694 0 l 694 174 l 868 174 l 868 0 l 694 0 z "},"‹":{"ha":528,"x_min":0,"x_max":347,"o":"m 0 0 l 0 521 l 347 521 l 347 347 l 174 347 l 174 174 l 347 174 l 347 0 l 0 0 z "},"›":{"ha":528,"x_min":0,"x_max":347,"o":"m 0 0 l 0 174 l 174 174 l 174 347 l 0 347 l 0 521 l 347 521 l 347 0 l 0 0 z "},"€":{"ha":875,"x_min":-174,"x_max":694,"o":"m 0 0 l 0 347 l -174 347 l -174 521 l 0 521 l 0 868 l 694 868 l 694 694 l 174 694 l 174 521 l 521 521 l 521 347 l 174 347 l 174 174 l 694 174 l 694 0 l 0 0 z "},"™":{"ha":701,"x_min":0,"x_max":521,"o":"m 174 347 l 174 521 l 0 521 l 0 694 l 521 694 l 521 347 l 174 347 z "},"ﬀ":{"ha":1048,"x_min":0,"x_max":868,"o":"m 0 0 l 0 868 l 347 868 l 347 694 l 174 694 l 174 521 l 521 521 l 521 868 l 868 868 l 868 694 l 694 694 l 694 521 l 868 521 l 868 347 l 694 347 l 694 0 l 521 0 l 521 347 l 174 347 l 174 0 l 0 0 z "},"ﬁ":{"ha":875,"x_min":0,"x_max":694,"o":"m 0 0 l 0 868 l 347 868 l 347 694 l 174 694 l 174 521 l 694 521 l 694 0 l 521 0 l 521 347 l 174 347 l 174 0 l 0 0 m 608 694 q 545 719 571 694 q 521 781 521 745 q 545 842 521 817 q 608 868 571 868 q 669 842 643 868 q 694 781 694 817 q 669 719 694 745 q 608 694 643 694 l 608 694 z "},"ﬂ":{"ha":875,"x_min":0,"x_max":694,"o":"m 0 0 l 0 868 l 347 868 l 347 694 l 174 694 l 174 521 l 521 521 l 521 868 l 694 868 l 694 0 l 521 0 l 521 347 l 174 347 l 174 0 l 0 0 z "},"ﬃ":{"ha":1396,"x_min":0,"x_max":1215,"o":"m 0 0 l 0 868 l 347 868 l 347 694 l 174 694 l 174 521 l 521 521 l 521 868 l 868 868 l 868 694 l 694 694 l 694 521 l 1215 521 l 1215 0 l 1042 0 l 1042 347 l 694 347 l 694 0 l 521 0 l 521 347 l 174 347 l 174 0 l 0 0 m 1042 694 l 1042 868 l 1215 868 l 1215 694 l 1042 694 z "},"ﬄ":{"ha":1396,"x_min":0,"x_max":1215,"o":"m 0 0 l 0 868 l 347 868 l 347 694 l 174 694 l 174 521 l 521 521 l 521 868 l 868 868 l 868 694 l 694 694 l 694 521 l 1042 521 l 1042 868 l 1215 868 l 1215 0 l 1042 0 l 1042 347 l 694 347 l 694 0 l 521 0 l 521 347 l 174 347 l 174 0 l 0 0 z "},"ﬆ":{"ha":1048,"x_min":0,"x_max":868,"o":"m 0 0 l 0 521 l 868 521 l 868 347 l 694 347 l 694 0 l 521 0 l 521 347 l 347 347 l 347 0 l 0 0 z "}}}
